<mxfile host="app.diagrams.net" modified="2023-01-03T17:38:51.481Z" agent="5.0 (Macintosh)" version="20.7.4" etag="Ms1IeJ8Ud073n6M1nRvY" type="github">
  <diagram id="zYBraHUd14v4wTSLYn0q" name="Page-1">
    <mxGraphModel dx="1306" dy="862" grid="1" gridSize="10" guides="1" tooltips="1" connect="1" arrows="1" fold="1" page="1" pageScale="1" pageWidth="850" pageHeight="1100" math="0" shadow="0">
      <root>
        <mxCell id="0" />
        <mxCell id="1" parent="0" />
        <mxCell id="6PLbL_6RK1raJBbSJHBN-1" value="&lt;div&gt;Database Breakdown&lt;/div&gt;" style="text;html=1;strokeColor=none;fillColor=none;align=center;verticalAlign=middle;whiteSpace=wrap;rounded=0;" vertex="1" parent="1">
          <mxGeometry x="70" y="90" width="170" height="30" as="geometry" />
        </mxCell>
      </root>
    </mxGraphModel>
  </diagram>
</mxfile>
